<?xml version="1.0" encoding="UTF-8" standalone="no"?>
<!-- Created with Inkscape (http://www.inkscape.org/) -->

<svg
   width="8.5in"
   height="11in"
   viewBox="0 0 215.9 279.4"
   version="1.1"
   id="svg1"
   xml:space="preserve"
   inkscape:version="1.3.2 (091e20e, 2023-11-25, custom)"
   sodipodi:docname="poster iguales.svg"
   xmlns:inkscape="http://www.inkscape.org/namespaces/inkscape"
   xmlns:sodipodi="http://sodipodi.sourceforge.net/DTD/sodipodi-0.dtd"
   xmlns:xlink="http://www.w3.org/1999/xlink"
   xmlns="http://www.w3.org/2000/svg"
   xmlns:svg="http://www.w3.org/2000/svg"><sodipodi:namedview
     id="namedview1"
     pagecolor="#505050"
     bordercolor="#eeeeee"
     borderopacity="1"
     inkscape:showpageshadow="0"
     inkscape:pageopacity="0"
     inkscape:pagecheckerboard="0"
     inkscape:deskcolor="#505050"
     inkscape:document-units="mm"
     inkscape:zoom="0.35355339"
     inkscape:cx="-83.4386"
     inkscape:cy="582.65599"
     inkscape:window-width="1920"
     inkscape:window-height="1027"
     inkscape:window-x="-8"
     inkscape:window-y="-8"
     inkscape:window-maximized="1"
     inkscape:current-layer="layer1" /><defs
     id="defs1"><linearGradient
       id="linearGradient1"
       inkscape:collect="always"><stop
         style="stop-color:#961441;stop-opacity:1;"
         offset="0"
         id="stop1" /><stop
         style="stop-color:#ff0000;stop-opacity:1;"
         offset="0.77873462"
         id="stop4" /><stop
         style="stop-color:#ff6000;stop-opacity:1;"
         offset="1"
         id="stop2" /></linearGradient><linearGradient
       inkscape:collect="always"
       xlink:href="#linearGradient1"
       id="linearGradient2"
       x1="591.35803"
       y1="589.59552"
       x2="546.37262"
       y2="559.89703"
       gradientUnits="userSpaceOnUse" /></defs><g
     inkscape:label="Layer 1"
     inkscape:groupmode="layer"
     id="layer1"><image
       width="231.01997"
       height="326.64172"
       preserveAspectRatio="none"
       xlink:href="../Texturas/old%20blue.png"
       id="image1-96"
       x="-6.3562088"
       y="-9.2717972"
       style="stroke-width:3.85694"
       sodipodi:absref="D:\X3\OrkoTrotzko\Texturas\old blue.png" /><image
       width="274.32001"
       height="274.32001"
       preserveAspectRatio="none"
       xlink:href="../Texturas/circulo%20trotzko.png"
       id="image1-9"
       x="-29.364439"
       y="3.0444622"
       sodipodi:absref="D:\X3\OrkoTrotzko\Texturas\circulo trotzko.png" /><path
       sodipodi:type="star"
       style="fill:#f7ff95;fill-opacity:1;stroke:none;stroke-width:1.7;stroke-linecap:round;stroke-linejoin:round;paint-order:markers stroke fill"
       id="path3"
       inkscape:flatsided="false"
       sodipodi:sides="26"
       sodipodi:cx="138.21175"
       sodipodi:cy="144.33891"
       sodipodi:r1="4.6124255"
       sodipodi:r2="0.11985022"
       sodipodi:arg1="0.95107415"
       sodipodi:arg2="1.0719046"
       inkscape:rounded="0.02"
       inkscape:randomized="0.205"
       d="m 140.59268,148.10541 c -0.0649,0.055 -2.35683,-3.19403 -2.43094,-3.12925 -0.0741,0.0648 1.35184,4.46641 1.26089,4.497 -0.0909,0.0306 -1.40889,-5.48295 -1.5014,-5.46326 -0.0925,0.0197 1.60459,5.58504 1.52341,5.57503 -0.0812,-0.01 -0.95005,-4.28908 -1.03205,-4.29862 -0.082,-0.01 -0.23394,3.06673 -0.31885,3.05478 -0.0849,-0.012 -0.0411,-3.20041 -0.12789,-3.24805 -0.0868,-0.0476 -0.68444,3.44045 -0.77799,3.42648 -0.0935,-0.014 1.66023,-4.54254 1.57619,-4.5772 -0.084,-0.0347 -2.51846,5.06357 -2.60546,5.01865 -0.087,-0.0449 1.81024,-3.59043 1.72137,-3.63176 -0.0889,-0.0413 -2.85678,1.89911 -2.91938,1.8371 -0.0626,-0.062 3.56571,-3.11329 3.50075,-3.18117 -0.065,-0.0679 -4.75099,3.52755 -4.7948,3.43897 -0.0438,-0.0886 5.17805,-3.42269 5.142,-3.50924 -0.036,-0.0866 -4.30492,1.25802 -4.31185,1.17212 -0.007,-0.0859 3.51039,-1.17819 3.48992,-1.27303 -0.0205,-0.0948 -4.68378,0.95494 -4.67212,0.86898 0.0117,-0.086 4.56234,-0.61445 4.56878,-0.69747 0.006,-0.083 -4.62099,-0.67708 -4.62626,-0.76361 -0.005,-0.0865 5.43102,1.6954 5.44935,1.59996 0.0183,-0.0954 -4.02634,-3.00326 -4.00937,-3.0944 0.017,-0.0911 3.52575,1.73241 3.55769,1.65193 0.0319,-0.0805 -3.6421,-2.11028 -3.56358,-2.16995 0.0785,-0.0597 2.90118,3.33166 2.98015,3.29425 0.079,-0.0374 -1.67871,-4.29204 -1.61537,-4.34599 0.0633,-0.0539 2.20751,3.44816 2.29785,3.42468 0.0903,-0.0235 -1.29686,-3.5155 -1.22972,-3.56481 0.0671,-0.0493 0.34577,3.92036 0.43053,3.87064 0.0848,-0.0497 -0.54988,-3.98695 -0.45254,-3.9824 0.0974,0.005 0.81662,4.60685 0.89896,4.59405 0.0823,-0.0128 0.37265,-5.05551 0.45197,-5.03192 0.0793,0.0236 -1.03057,5.19443 -0.94301,5.22822 0.0876,0.0338 1.67129,-4.64266 1.74691,-4.5978 0.0756,0.0449 -1.49418,3.46363 -1.40347,3.49963 0.0907,0.036 2.46328,-3.10713 2.5347,-3.06822 0.0714,0.0389 -1.93669,3.84609 -1.85255,3.88117 0.0841,0.0351 3.75234,-4.12487 3.79994,-4.03859 0.0476,0.0863 -3.57275,4.48578 -3.53186,4.55885 0.0409,0.0731 4.03149,-3.15325 4.07649,-3.07397 0.045,0.0793 -5.28704,1.83159 -5.27509,1.91358 0.0119,0.082 4.55022,-0.67674 4.54689,-0.59469 -0.003,0.082 -3.62634,1.47378 -3.62301,1.56846 0.003,0.0947 4.69815,-0.7502 4.67215,-0.65958 -0.026,0.0906 -4.63877,-0.47247 -4.67076,-0.38478 -0.032,0.0877 4.6529,1.56774 4.65935,1.64977 0.006,0.082 -5.35527,-1.48384 -5.38047,-1.40388 -0.0252,0.08 4.19411,2.51105 4.14244,2.58958 -0.0517,0.0785 -2.91316,-1.28659 -2.94137,-1.20808 -0.0282,0.0785 2.89071,2.66505 2.84531,2.74434 -0.0454,0.0793 -2.93362,-3.86002 -3.01126,-3.80766 -0.0776,0.0524 1.81333,3.78612 1.74843,3.84116 z"
       inkscape:transform-center-x="1.7412505e-06"
       inkscape:transform-center-y="-1.8184429e-06" /><path
       sodipodi:type="star"
       style="fill:#fff722;fill-opacity:1;stroke:none;stroke-width:1.7;stroke-linecap:round;stroke-linejoin:round;paint-order:markers stroke fill"
       id="path2"
       inkscape:flatsided="false"
       sodipodi:sides="26"
       sodipodi:cx="138.21175"
       sodipodi:cy="144.33891"
       sodipodi:r1="4.3177576"
       sodipodi:r2="0.11985022"
       sodipodi:arg1="0.78539816"
       sodipodi:arg2="0.90622865"
       inkscape:rounded="0.02"
       inkscape:randomized="0.2"
       d="m 141.31234,146.94054 c -0.0694,0.036 -3.10245,-1.94924 -3.17445,-1.90772 -0.072,0.0415 2.11724,2.82571 2.04469,2.87749 -0.0726,0.0518 -1.05914,-4.23952 -1.13043,-4.20449 -0.0713,0.035 1.14342,4.12039 1.07085,4.16236 -0.0726,0.042 -1.40186,-3.60158 -1.47984,-3.56857 -0.078,0.033 -0.93186,5.12535 -1.01489,5.11718 -0.083,-0.008 0.007,-4.46975 -0.08,-4.46854 -0.0873,0.001 0.29298,3.94108 0.21861,3.90464 -0.0744,-0.0364 1.18519,-4.45046 1.09826,-4.46605 -0.0869,-0.0156 -2.84071,3.54848 -2.90274,3.49901 -0.062,-0.0495 1.97603,-3.16717 1.90303,-3.2082 -0.073,-0.041 -1.85109,2.46432 -1.90492,2.40962 -0.0538,-0.0547 1.43703,-2.73559 1.37594,-2.78257 -0.0611,-0.047 -2.44628,2.95221 -2.51052,2.88949 -0.0642,-0.0627 3.09263,-2.71928 3.0414,-2.77563 -0.0512,-0.0564 -2.85442,1.83039 -2.87721,1.75754 -0.0228,-0.0729 3.49743,-1.11685 3.47614,-1.20252 -0.0213,-0.0857 -3.63184,0.0159 -3.64311,-0.0639 -0.0113,-0.0798 3.06769,-0.0417 3.07843,-0.12186 0.0107,-0.0801 -3.52804,-0.10849 -3.51665,-0.19708 0.0114,-0.0886 3.80571,-0.023 3.79683,-0.10552 -0.009,-0.0825 -4.21152,-0.95814 -4.19133,-1.0368 0.0202,-0.0787 4.89884,0.13507 4.94572,0.0717 0.0469,-0.0634 -4.61426,-0.55545 -4.57173,-0.63187 0.0425,-0.0764 4.4015,2.16901 4.44164,2.08728 0.0402,-0.0817 -3.65294,-4.16807 -3.58245,-4.22289 0.0705,-0.0548 3.09433,3.00566 3.14777,2.93268 0.0534,-0.073 -2.0797,-3.85413 -2.018,-3.90245 0.0617,-0.0483 1.0247,5.10974 1.10196,5.08025 0.0772,-0.0295 -0.352,-4.28925 -0.26488,-4.29665 0.0871,-0.007 0.4934,3.09422 0.58078,3.09692 0.0874,0.003 0.96326,-2.92037 1.04331,-2.92119 0.08,-8.3e-4 0.16136,3.88609 0.2378,3.86688 0.0764,-0.0192 0.32019,-3.89561 0.40115,-3.90615 0.081,-0.0105 -1.12323,2.85722 -1.03359,2.87599 0.0896,0.0188 2.07399,-3.97849 2.15362,-3.96282 0.0796,0.0157 -1.98456,4.60387 -1.93142,4.65765 0.0531,0.0538 2.66095,-2.80361 2.71087,-2.73513 0.0499,0.0685 -3.97815,2.85605 -3.90902,2.91684 0.0691,0.0608 4.28658,-3.21508 4.35917,-3.1593 0.0726,0.0558 -3.31777,3.72007 -3.25608,3.78415 0.0617,0.0641 2.86509,-2.69913 2.90568,-2.63329 0.0406,0.0658 -3.52947,2.14331 -3.50284,2.22747 0.0266,0.0842 3.6395,-0.89001 3.67158,-0.81181 0.0321,0.0782 -2.99971,0.0229 -3.01554,0.10971 -0.0158,0.0868 3.53469,0.30339 3.51668,0.38831 -0.018,0.0849 -3.69636,0.62861 -3.70375,0.71145 -0.007,0.0828 4.14797,0.76913 4.12842,0.85773 -0.0196,0.0886 -5.03383,-1.75688 -5.06905,-1.67815 -0.0352,0.0787 4.82135,2.80682 4.78638,2.88632 -0.035,0.0795 -3.72307,-2.66458 -3.78566,-2.61186 -0.0626,0.0527 2.90282,2.37844 2.83339,2.41443 z"
       inkscape:transform-center-x="1.7412505e-06"
       inkscape:transform-center-y="-1.8184429e-06" /><path
       sodipodi:type="star"
       style="fill:#ffb100;fill-opacity:1;stroke:none;stroke-width:1.7;stroke-linecap:round;stroke-linejoin:round;paint-order:markers stroke fill"
       id="path4"
       inkscape:flatsided="false"
       sodipodi:sides="26"
       sodipodi:cx="138.21175"
       sodipodi:cy="144.33891"
       sodipodi:r1="2.9704148"
       sodipodi:r2="0.11985022"
       sodipodi:arg1="0.61760023"
       sodipodi:arg2="0.73843072"
       inkscape:rounded="0.02"
       inkscape:randomized="0.2"
       d="m 141.21928,146.39641 c -0.0447,0.0367 -3.15582,-1.9397 -3.18416,-1.89212 -0.0284,0.0476 1.97824,1.7426 1.9335,1.78155 -0.0447,0.0389 -1.07326,-1.61071 -1.11715,-1.57101 -0.0439,0.0397 1.31512,2.45068 1.26317,2.46414 -0.052,0.0135 -1.83819,-2.90643 -1.89399,-2.89498 -0.0558,0.0114 1.25921,3.2077 1.20514,3.22442 -0.0541,0.0167 -1.43681,-3.09909 -1.49571,-3.07842 -0.0589,0.0207 0.38755,3.13683 0.33575,3.13563 -0.0518,-0.001 0.0762,-3.62056 0.026,-3.63407 -0.0502,-0.0135 -0.22181,3.12683 -0.27533,3.11792 -0.0535,-0.009 0.0389,-2.68604 -0.0154,-2.71437 -0.0542,-0.0283 -0.75265,2.44567 -0.80824,2.43415 -0.0556,-0.0115 1.46994,-2.45696 1.43067,-2.49151 -0.0393,-0.0345 -2.18879,2.6378 -2.22918,2.59441 -0.0404,-0.0434 1.25001,-2.42087 1.20504,-2.45072 -0.045,-0.0298 -1.4532,1.75948 -1.48075,1.71179 -0.0275,-0.0477 1.59872,-1.36606 1.56343,-1.40953 -0.0353,-0.0435 -2.79723,0.44061 -2.8143,0.38911 -0.0171,-0.0515 3.37134,-0.18702 3.3527,-0.23921 -0.0186,-0.0522 -3.02342,-0.56346 -3.02579,-0.61772 -0.002,-0.0543 2.77232,0.31041 2.76589,0.25782 -0.006,-0.0526 -3.23807,-0.8662 -3.22173,-0.92119 0.0163,-0.055 3.53906,0.89805 3.54649,0.84709 0.007,-0.051 -3.13722,-1.01725 -3.1093,-1.06901 0.0279,-0.0518 2.54848,0.3824 2.57172,0.33472 0.0232,-0.0477 -2.50911,-0.90296 -2.46503,-0.94207 0.0441,-0.0391 2.46009,2.01369 2.51011,1.977 0.05,-0.0367 -1.30798,-3.11859 -1.26068,-3.15725 0.0473,-0.0386 1.05295,2.46986 1.09761,2.43661 0.0446,-0.0332 -0.76251,-2.54097 -0.70871,-2.55652 0.0538,-0.0155 1.22251,2.32286 1.27545,2.30739 0.0529,-0.0155 -1.23992,-2.77312 -1.18557,-2.7703 0.0543,0.003 1.41728,2.89348 1.47618,2.88741 0.0589,-0.006 -0.3705,-2.84503 -0.315,-2.84197 0.0555,0.003 -0.0293,3.73535 0.0173,3.75727 0.0466,0.0219 0.24378,-2.81499 0.29487,-2.79535 0.0511,0.0196 -0.12348,1.68292 -0.0683,1.71182 0.0552,0.0289 0.84461,-2.52003 0.89188,-2.48821 0.0473,0.0318 -1.56046,2.618 -1.51309,2.64821 0.0474,0.0302 2.26276,-1.58706 2.3116,-1.56294 0.0488,0.0241 -1.98367,1.92388 -1.94194,1.95827 0.0417,0.0344 2.71165,-1.83408 2.75376,-1.79477 0.0421,0.0393 -2.14479,1.47788 -2.1191,1.53083 0.0257,0.053 1.62656,-1.30602 1.64567,-1.25471 0.0191,0.0513 -2.14418,1.56946 -2.11882,1.62431 0.0254,0.0549 2.96297,0.17595 2.96055,0.22978 -0.002,0.0538 -2.75608,-0.57721 -2.76592,-0.52095 -0.01,0.0563 2.07567,0.26702 2.05314,0.31872 -0.0225,0.0517 -2.37581,-0.0701 -2.37666,-0.0104 -8.6e-4,0.0597 3.13588,1.33405 3.12884,1.39158 -0.007,0.0575 -2.6299,-1.35351 -2.65654,-1.30835 -0.0266,0.0452 2.59454,1.87898 2.54986,1.91571 z"
       inkscape:transform-center-x="1.7412505e-06"
       inkscape:transform-center-y="-1.8184429e-06" /><path
       style="fill:url(#linearGradient2);stroke:#544e42;stroke-width:6.4252;stroke-linecap:round;stroke-linejoin:round;paint-order:markers stroke fill;fill-opacity:1"
       d="m 549.69715,544.73186 c -1.19818,0.59819 -2.19724,1.59008 -3.33873,2.30846 -0.74049,0.58342 -1.46485,1.27066 -1.89172,2.10647 0.3422,0.67982 0.54664,1.93904 1.59962,1.70113 0.75082,-0.15104 1.37275,0.60299 1.196,1.34516 -0.10553,1.74858 -0.89699,3.85391 -2.63473,4.57444 -0.89948,0.0621 -2.20153,-0.99532 -1.3349,-1.86059 0.80076,-0.64497 0.34563,-2.39554 -0.77606,-2.17281 -0.61974,0.79981 -0.2842,2.01133 -0.42399,2.96515 -0.13217,2.19667 0.28176,4.52144 1.543,6.3536 0.78974,0.75228 1.8568,-0.68808 2.74177,-0.002 0.50575,0.31405 1.38637,0.6195 1.40627,1.28197 -0.29757,0.29038 -0.75276,0.80101 -0.23099,1.13904 2.59234,1.31598 4.83034,3.24129 7.30654,4.76641 6.376,4.28374 12.80881,8.50603 18.81083,13.31185 2.32749,1.73247 4.4498,3.73686 6.81834,5.40749 0.40182,0.20434 1.28579,0.97841 1.43562,0.13431 0.11378,-1.09047 0.71138,-2.03963 0.86282,-3.10913 0.26011,-0.19703 0.72311,-0.46428 0.72541,-0.75268 -0.11226,0.51884 -0.43593,0.99298 -0.39291,1.5865 -0.008,1.06627 -0.79088,1.94916 -0.83037,2.97654 0.35309,0.52457 0.5112,1.14061 0.78686,1.70769 0.24358,1.14496 0.0955,2.34271 -0.49649,3.3522 -0.0878,0.75583 -0.77311,1.23081 -0.64116,2.02879 -0.15682,2.87937 -0.016,5.7865 0.1747,8.64169 -0.20434,1.62296 0.37468,3.31176 -0.004,4.89243 -0.72502,0.097 -1.39226,-0.67676 -2.03051,-0.98953 -0.96573,-0.55338 -1.40875,-1.65657 -2.40582,-2.15067 -0.29416,-0.15342 -0.73914,-1.02645 -1.03788,-0.59835 0.62654,1.35533 2.0254,2.20568 3.15022,3.13537 0.93039,0.72707 2.05271,1.1046 3.06114,1.68387 0.67847,0.16761 0.0561,1.22045 -0.46853,1.22846 -0.47257,-10e-4 -0.85827,0.41396 -0.37358,0.77305 0.46674,0.9254 1.18736,1.19534 2.02131,0.44422 0.75031,-0.21451 1.76702,-1.24472 2.47648,-0.44422 0.49948,0.52944 1.37301,1.63057 2.12996,0.86662 0.29602,-0.41304 0.52331,-1.45198 1.19427,-1.2143 -0.0198,0.73216 0.61806,1.16001 1.28647,1.2837 1.26196,0.5646 2.52397,1.14634 3.877,1.42526 0.92221,0.48658 1.95559,0.67458 2.87504,1.14767 1.91413,0.34671 3.79865,0.86265 5.73565,1.05428 0.82251,0.1437 1.64598,0.52883 2.49241,0.36856 -0.0235,-0.4346 -0.85588,-0.33702 -1.17805,-0.63667 -1.2316,-0.31673 -2.50439,-0.36477 -3.70321,-0.81362 -2.41178,-0.20472 -4.74832,-0.84901 -6.86778,-2.02935 -1.17529,-0.54159 -2.47738,-0.70185 -3.66989,-1.19389 0.49952,-1.18237 0.3594,-2.50688 0.93291,-3.65603 0.24326,-1.70234 0.5856,-3.40429 1.40247,-4.94561 0.24009,-1.36632 1.53718,-2.32156 1.70251,-3.70644 -0.46232,0.0127 -0.98204,1.32729 -1.55922,0.81172 -0.0463,-0.75472 0.55054,-1.86926 1.43665,-1.78054 0.22389,0.21609 0.52318,0.61903 0.79757,0.17989 0.75144,-0.80932 1.06113,-2.15206 2.08679,-2.61644 -0.034,-0.38194 -0.84592,-0.55397 -0.35286,-0.99506 0.364,-0.61043 0.8739,-1.20715 1.54024,-1.39418 0.42743,-0.49339 -0.002,-1.01064 -0.57694,-0.83244 -0.94411,-0.55065 -0.16168,-1.75283 0.14328,-2.45382 0.3732,-0.35137 -0.15391,-1.33958 -0.5469,-0.95742 -0.56621,1.29783 -1.71741,2.29745 -2.3898,3.56264 -1.10568,1.76753 -2.06117,3.62484 -3.08407,5.43571 -1.14366,2.38368 -2.18841,4.84597 -3.46613,7.14875 -0.28201,0.74897 -0.37882,1.75745 -1.03615,2.23698 -1.04143,-1.52652 -1.34463,-3.42874 -1.94247,-5.15276 -0.65873,-3.458 0.25694,-6.91669 0.17062,-10.40286 -0.0742,-0.6468 0.18623,-1.44673 -0.0995,-2.0157 -0.2079,0.10453 -0.18175,0.87407 -0.49581,0.37565 -0.51009,-0.40997 -0.28274,-1.17824 0.28381,-1.29821 -0.11958,0.39069 0.37096,0.65967 0.45334,0.17885 0.56413,-2.88478 0.72755,-5.89621 2.04467,-8.58092 0.17784,-0.83332 0.82973,-1.54238 0.98712,-2.34229 -0.63907,-0.73223 -1.71731,-0.43407 -2.48109,-0.77927 0.61073,-1.43878 -0.8228,-2.66555 -1.89103,-3.3812 -2.19002,-1.88706 -4.49385,-3.655 -6.73098,-5.47144 -2.09368,-1.73242 -2.84145,-4.58343 -2.83049,-7.20849 -0.15396,-1.90349 -2.25867,-2.66736 -3.52414,-3.74062 -1.70909,-1.20203 -3.47602,-2.39792 -5.2674,-3.42919 -1.65793,-1.24142 -3.69362,-1.93196 -5.3234,-3.2438 -3.1281,-2.03753 -5.97096,-4.51747 -9.36909,-6.10914 -0.67272,-0.27324 -1.11301,-0.80057 -1.54541,-1.331 -0.12985,-0.0875 -0.2863,-0.15228 -0.44574,-0.12948 z m 0.61043,8.32128 c 0.85238,0.4156 2.08317,0.98202 1.72323,2.1593 -0.40671,1.85457 -1.09107,3.75813 -2.23388,5.30503 -0.79527,0.4851 -1.78536,-0.35545 -2.11959,-1.07551 0.44686,-1.78402 1.57627,-3.3795 1.87618,-5.23286 0.1524,-0.36926 0.25982,-1.06981 0.75406,-1.15596 z m 34.32886,41.81563 c 0.51148,0.0995 -0.11519,0.80911 -0.16918,1.0983 -0.24072,0.41426 -0.58705,1.1614 -1.14145,1.12384 -0.64594,-0.53774 -0.68174,-1.75708 0.25618,-2.00117 0.32883,-0.14552 0.69168,-0.25023 1.05445,-0.22097 z m -1.94454,3.53485 c 0.71113,0.12647 -0.15249,1.41177 -0.35287,0.53689 -0.0435,-0.22192 0.0711,-0.5761 0.35287,-0.53689 z m 1.58028,7.10007 c 0.71622,0.35026 -0.5357,0.63804 -0.0974,0.005 0.0309,-0.0124 0.0653,-0.01 0.0974,-0.005 z"
       id="path1"
       transform="scale(0.26458333)" /><image
       width="243.00711"
       height="343.57465"
       preserveAspectRatio="none"
       xlink:href="image1-55.png"
       id="image1"
       x="-4.4120374"
       y="-38.183197"
       style="stroke-width:1.35881"
       sodipodi:absref="D:\X3\OrkoTrotzko\PropagandaVaso\image1-55.png" /></g></svg>
